HIERARCHY
ROOT Hips
{
  OFFSET 0.000000 0.000000 0.000000
  CHANNELS 6 Xposition Yposition Zposition Xrotation Yrotation Zrotation
  JOINT Spine
  {
    OFFSET 0.000000 10.000000 0.000000
    CHANNELS 3 Xrotation Yrotation Zrotation
    JOINT Chest
    {
      OFFSET 0.000000 15.000000 0.000000
      CHANNELS 3 Xrotation Yrotation Zrotation
      JOINT Neck
      {
        OFFSET 0.000000 15.000000 0.000000
        CHANNELS 3 Xrotation Yrotation Zrotation
        JOINT Head
        {
          OFFSET 0.000000 10.000000 0.000000
          CHANNELS 3 Xrotation Yrotation Zrotation
          End Site
          {
            OFFSET 0.0 5.0 2.0
          }
        }
      }
      JOINT LeftShoulder
      {
        OFFSET 16.877865 5.000000 0.000000
        CHANNELS 3 Xrotation Yrotation Zrotation
        JOINT LeftArm
        {
          OFFSET 15.000000 0.000000 0.000000
          CHANNELS 3 Xrotation Yrotation Zrotation
          JOINT LeftForeArm
          {
            OFFSET 25.000000 0.000000 0.000000
            CHANNELS 3 Xrotation Yrotation Zrotation
            JOINT LeftHand
            {
              OFFSET 20.000000 0.000000 0.000000
              CHANNELS 3 Xrotation Yrotation Zrotation
              End Site
              {
                OFFSET -3.0 0.0 2.0
              }
            }
          }
        }
      }
      JOINT RightShoulder
      {
        OFFSET -16.877865 5.000000 0.000000
        CHANNELS 3 Xrotation Yrotation Zrotation
        JOINT RightArm
        {
          OFFSET -15.000000 0.000000 0.000000
          CHANNELS 3 Xrotation Yrotation Zrotation
          JOINT RightForeArm
          {
            OFFSET -25.000000 0.000000 0.000000
            CHANNELS 3 Xrotation Yrotation Zrotation
            JOINT RightHand
            {
              OFFSET -20.000000 0.000000 0.000000
              CHANNELS 3 Xrotation Yrotation Zrotation
              End Site
              {
                OFFSET 3.0 0.0 2.0
              }
            }
          }
        }
      }
    }
  }
  JOINT LeftUpLeg
  {
    OFFSET 10.000000 -10.000000 0.000000
    CHANNELS 3 Xrotation Yrotation Zrotation
    JOINT LeftLeg
    {
      OFFSET 0.000000 -45.000000 0.000000
      CHANNELS 3 Xrotation Yrotation Zrotation
      JOINT LeftFoot
      {
        OFFSET 0.000000 -45.000000 0.000000
        CHANNELS 3 Xrotation Yrotation Zrotation
        JOINT LeftToeBase
        {
          OFFSET 0.000000 0.000000 10.000000
          CHANNELS 3 Xrotation Yrotation Zrotation
          End Site
          {
            OFFSET 0.0 -1.0 3.0
          }
        }
      }
    }
  }
  JOINT RightUpLeg
  {
    OFFSET -10.000000 -10.000000 0.000000
    CHANNELS 3 Xrotation Yrotation Zrotation
    JOINT RightLeg
    {
      OFFSET 0.000000 -45.000000 0.000000
      CHANNELS 3 Xrotation Yrotation Zrotation
      JOINT RightFoot
      {
        OFFSET 0.000000 -45.000000 0.000000
        CHANNELS 3 Xrotation Yrotation Zrotation
        JOINT RightToeBase
        {
          OFFSET 0.000000 0.000000 10.000000
          CHANNELS 3 Xrotation Yrotation Zrotation
          End Site
          {
            OFFSET 0.0 -1.0 3.0
          }
        }
      }
    }
  }
}
MOTION
Frames: 11
Frame Time: 0.033333
-0.118631 0.100433 -2.501888 -3.720469 -3.704334 -89.756474 -41.523852 -28.261346 -67.218973 -41.523852 -28.261346 -67.218973 -63.940521 -14.731976 -23.406619 4.562149 -3.430602 73.814631 12.257291 -16.890493 -71.720817 4.193514 -4.658448 -83.976499 -26.969255 15.453190 -120.935072 -26.969255 15.453190 -120.935072 0.373582 0.417622 82.226324 -15.036623 -18.650631 77.556592 -112.894091 -50.484812 145.270082 -112.894091 -50.484812 145.270082 4.939983 0.014147 -0.322959 -36.321214 -0.284802 -0.870102 73.967457 -13.869759 -10.487818 39.934880 0.767006 0.216885 0.200989 -0.004498 4.717244 -49.230443 -2.130154 -4.647009 51.783483 1.082466 0.695622 40.055273 5.319815 2.261618
-0.243921 0.101784 -4.131144 -3.860459 -3.841377 -89.733029 -42.406653 -28.478052 -66.428679 -42.406653 -28.478052 -66.428679 -64.200620 -14.536299 -22.990597 5.633445 -4.232149 73.795202 11.771232 -16.304361 -71.434812 4.033967 -4.482750 -83.957665 -28.696710 16.310025 -121.403753 -28.696710 16.310025 -121.403753 0.160258 0.175943 81.834691 -15.563796 -19.268861 77.652384 -113.616334 -50.539558 145.675341 -113.616334 -50.539558 145.675341 4.653610 0.012768 -0.310918 -36.296496 -0.238621 -0.728662 72.843358 -13.750312 -10.185858 37.864111 1.216894 0.365516 -1.655592 0.074246 4.795744 -46.126870 -1.982063 -4.637944 46.117174 0.436423 0.362132 33.902930 3.969362 1.571270
-0.566890 0.104562 -7.145889 -5.077398 -4.988109 -89.413721 -43.433036 -28.714262 -65.502692 -43.433036 -28.714262 -65.502692 -64.505923 -14.255855 -22.426998 6.803688 -5.092392 73.648518 11.035211 -15.384190 -71.070515 3.661611 -4.069523 -83.956918 -30.217952 17.003229 -121.987252 -30.217952 17.003229 -121.987252 -0.014922 -0.023527 81.402208 -16.215100 -20.052318 77.708797 -114.791442 -50.806887 146.208194 -114.791442 -50.806887 146.208194 4.289645 0.012842 -0.354520 -36.155740 -0.188904 -0.577595 71.530709 -13.562935 -9.810534 35.666575 1.711682 0.509656 -0.708681 0.018743 4.969243 -41.686828 -1.790155 -4.693662 40.039790 -0.179682 0.074889 27.531662 2.593922 0.941794
-1.030335 0.109191 -11.182344 -9.127146 -8.345197 -87.702503 -44.773385 -29.007981 -64.286815 -44.773385 -29.007981 -64.286815 -64.915297 -13.836509 -21.608665 8.250274 -6.143493 73.376406 10.010090 -14.095451 -70.542475 3.120616 -3.467822 -83.982919 -31.872933 17.674221 -122.841302 -31.872933 17.674221 -122.841302 -0.295287 -0.346779 80.928223 -17.089957 -21.148599 77.667737 -116.513033 -51.301266 146.918169 -116.513033 -51.301266 146.918169 3.735826 0.014739 -0.505032 -35.906911 -0.137180 -0.421768 69.689419 -12.826408 -8.980721 32.991395 2.805041 0.808256 1.983153 -0.124217 5.247565 -36.026975 -1.555396 -4.795385 33.002922 -0.975358 -0.252834 20.267807 0.888572 0.248749
-1.654412 0.114705 -15.668729 -15.781605 -13.460048 -84.437838 -45.745364 -29.193007 -63.392451 -45.745364 -29.193007 -63.392451 -65.239005 -13.426538 -20.847416 9.093156 -6.729140 73.004590 9.147738 -13.017540 -70.010926 2.447750 -2.716386 -84.145490 -33.243961 18.022217 -123.988248 -33.243961 18.022217 -123.988248 -0.516428 -0.608084 80.720611 -17.723219 -21.997160 77.484596 -118.007776 -51.926283 147.396824 -118.007776 -51.926283 147.396824 3.249356 0.019564 -0.769617 -35.587586 -0.111742 -0.347446 67.963676 -11.853593 -8.061699 31.186419 3.913294 1.056597 7.446801 -0.402309 5.552572 -31.102680 -1.368368 -4.964432 28.798749 -1.531506 -0.373289 16.176878 -0.256897 -0.002723
-2.166896 0.120293 -19.046392 -23.282218 -18.916999 -80.399490 -46.469013 -29.320256 -62.721946 -46.469013 -29.320256 -62.721946 -65.462580 -13.046635 -20.177064 9.613309 -7.079546 72.697469 8.531181 -12.274087 -69.451068 1.485124 -1.653407 -84.539120 -35.820630 18.629131 -125.866134 -35.820630 18.629131 -125.866134 -0.823665 -0.969551 80.655118 -18.191550 -22.642726 77.303463 -118.621335 -52.342790 147.481552 -118.621335 -52.342790 147.481552 2.858080 0.025160 -1.067158 -35.395289 -0.098954 -0.309912 66.160707 -10.611077 -6.972073 29.599489 5.272460 1.368113 12.664741 -0.675858 5.866622 -27.910245 -1.276824 -5.175858 25.866875 -2.009902 -0.445337 13.411343 -1.045843 -0.101440
-2.475121 0.124984 -20.790553 -30.232778 -23.409955 -76.110068 -46.957994 -29.402656 -62.267310 -46.957994 -29.402656 -62.267310 -65.597019 -12.725865 -19.636108 9.832905 -7.223639 72.543789 8.070520 -11.749760 -68.847985 0.077866 -0.131205 -85.292635 -41.041414 20.002298 -128.826514 -41.041414 20.002298 -128.826514 -1.076737 -1.266853 80.684087 -18.427654 -22.961297 77.229172 -118.595737 -52.337609 147.467438 -118.595737 -52.337609 147.467438 2.615760 0.029673 -1.324572 -35.271834 -0.111154 -0.350118 63.865120 -9.947393 -6.218568 27.726043 5.991465 1.481660 13.885525 -0.742896 6.235384 -25.538093 -1.214037 -5.363733 23.256420 -2.422222 -0.487371 10.992735 -1.688672 -0.144448
-2.362019 0.128076 -19.368137 -36.128009 -26.275501 -71.717394 -47.158394 -29.434121 -62.079984 -47.158394 -29.434121 -62.079984 -65.688591 -12.482904 -19.231568 9.869805 -7.264088 72.641737 7.651341 -11.269868 -68.197111 -1.134884 1.156914 -86.410187 -47.994425 21.724283 -132.566070 -47.994425 21.724283 -132.566070 -1.190550 -1.400368 80.735328 -18.511047 -23.027044 77.319726 -118.288141 -51.965387 147.531225 -118.288141 -51.965387 147.531225 2.436177 0.031734 -1.500121 -35.242568 -0.175786 -0.554022 61.208552 -10.207886 -5.995775 25.385002 5.866792 1.364224 9.485508 -0.502761 6.632500 -24.808653 -1.190100 -5.412232 21.662511 -2.914332 -0.552047 9.320027 -2.469183 -0.187829
-1.948559 0.129803 -15.995426 -40.932459 -27.704522 -67.554181 -47.135662 -29.430525 -62.101222 -47.135662 -29.430525 -62.101222 -65.711764 -12.284549 -18.920566 9.784421 -7.234500 72.900964 7.006432 -10.433472 -67.577427 -2.328481 2.378145 -87.844303 -55.014974 23.127287 -136.542585 -55.014974 23.127287 -136.542585 -1.125967 -1.324150 80.749888 -18.652580 -23.097437 77.574359 -118.275222 -51.541607 147.808236 -118.275222 -51.541607 147.808236 2.280743 0.031521 -1.593581 -35.279773 -0.285599 -0.897308 58.656067 -11.008554 -6.143781 22.581957 5.424690 1.117256 3.169847 -0.135518 7.101010 -24.936523 -1.187527 -5.375406 20.991804 -2.888980 -0.527457 8.388650 -2.574784 -0.179558
-1.232584 0.130567 -10.807561 -50.413436 -25.598760 -56.689554 -46.989512 -29.408046 -62.238038 -46.989512 -29.408046 -62.238038 -65.677202 -12.129446 -18.695927 9.543539 -7.099474 73.251276 6.141546 -9.239927 -67.043733 -3.779739 3.742609 -89.569697 -61.292112 24.024891 -140.184148 -61.292112 24.024891 -140.184148 -0.978319 -1.150154 80.775275 -18.882031 -23.253693 77.880361 -118.755178 -51.216720 148.316501 -118.755178 -51.216720 148.316501 1.881617 0.026825 -1.647155 -35.653294 -0.431600 -1.332652 57.651506 -11.286114 -6.178598 20.444290 5.769826 1.048324 -3.192736 0.251523 7.602796 -26.249152 -1.233208 -5.294230 21.452739 -2.125772 -0.378849 8.278105 -1.648161 -0.107102
-0.540910 0.130617 -6.021589 -62.474552 -21.697910 -42.356786 -46.787296 -29.376949 -62.427343 -46.787296 -29.376949 -62.427343 -65.591144 -12.026696 -18.569235 9.189444 -6.874551 73.569167 5.354171 -8.114505 -66.718206 -5.370173 5.137160 -91.443150 -65.987176 24.413409 -142.988935 -65.987176 24.413409 -142.988935 -0.845032 -0.991935 80.874644 -19.087587 -23.378041 78.194268 -119.530917 -51.071762 148.879773 -119.530917 -51.071762 148.879773 1.367814 0.019933 -1.659603 -36.321926 -0.567894 -1.718872 58.270633 -10.742858 -5.930902 19.634014 6.940765 1.222409 -7.427919 0.529724 8.025748 -27.870745 -1.302034 -5.247038 22.440564 -0.807710 -0.126128 8.640278 0.087580 0.022601
